<svg width="24" height="24" viewBox="0 0 24 24" fill="none" xmlns="http://www.w3.org/2000/svg">
<path d="M8.26221 1.96191C8.81486 1.73204 9.19042 1.72364 9.43018 1.77148C9.66952 1.81935 9.81736 1.93212 9.8999 2.01758L9.90674 2.02344C9.99147 2.10819 10.0993 2.25508 10.144 2.48438C10.1886 2.7128 10.1791 3.06933 9.95166 3.58984V3.59082C9.46419 4.71412 9.21977 5.91267 9.22998 7.1416V7.14258C9.25133 11.8454 13.1476 15.8168 17.897 16.0088V16.0098C18.5876 16.0416 19.265 15.9878 19.9175 15.8721H19.9194C20.5024 15.7661 20.8652 15.8388 21.0845 15.9355C21.3033 16.0321 21.4222 16.171 21.4849 16.2725C21.5496 16.3773 21.6228 16.5481 21.6138 16.7881C21.6046 17.0282 21.5104 17.3861 21.1577 17.8623L21.1567 17.8652C19.1323 20.6345 15.9124 22.25 12.4595 22.25C12.2872 22.25 12.1318 22.2502 11.979 22.2412L11.9722 22.2402C6.78766 22.0087 2.43096 17.9519 1.82568 12.9336L1.77881 12.4443C1.45446 7.94166 4.05813 3.73034 8.26221 1.96191ZM9.17041 2.25C9.0007 2.25 8.77408 2.28889 8.46631 2.41895C4.46112 4.10092 1.97623 8.11882 2.271 12.4043V12.4053C2.62944 17.4235 6.89886 21.5163 11.9858 21.7383V21.7393C15.4436 21.9074 18.7235 20.3306 20.7427 17.5752L20.7437 17.5762L20.7466 17.5703C20.9189 17.3291 21.0111 17.141 21.0581 17.0156L21.2837 16.4141L20.645 16.3428C20.546 16.3318 20.4017 16.3233 20.2056 16.3457L20.0024 16.3779C19.309 16.5014 18.5846 16.5491 17.8696 16.5205C12.8532 16.3209 8.75025 12.107 8.72021 7.16016C8.72021 5.84876 8.97627 4.58966 9.49561 3.40723C9.62403 3.1247 9.65303 2.92021 9.6665 2.8125L9.73682 2.25H9.17041Z" stroke="#090D1F"/>
</svg>
